<svg xmlns="http://www.w3.org/2000/svg" viewBox="0 0 800 320" width="800" height="320" role="img" aria-label="Heavy CI workflow median runtime before and after">
<defs><style>
text { font-family: -apple-system, BlinkMacSystemFont, 'Segoe UI', system-ui, sans-serif; }
.v { font-weight: 700; font-size: 14px; fill: #0f172a; }
.vl { font-weight: 700; font-size: 14px; fill: #ffffff; }
.cat { font-weight: 600; font-size: 13px; fill: #334155; }
.sm { font-weight: 500; font-size: 11px; fill: #64748b; }
.sm-dark { font-weight: 500; font-size: 11px; fill: #334155; }
.smb { font-weight: 600; font-size: 11px; fill: #64748b; }
.ax { stroke: #cbd5e1; stroke-width: 1; }
.grid { stroke: #e2e8f0; stroke-width: 1; stroke-dasharray: 4 3; }
.box-label { font-weight: 700; font-size: 12px; fill: #ffffff; }
.box-sub { font-weight: 500; font-size: 11px; fill: rgba(255,255,255,0.85); }
.heading { font-weight: 700; font-size: 13px; fill: #334155; }
.heading-sm { font-weight: 600; font-size: 12px; fill: #64748b; }
.good { font-weight: 600; font-size: 11px; fill: #059669; }
.bad { font-weight: 600; font-size: 11px; fill: #dc2626; }
</style></defs>
<rect width="100%" height="100%" fill="#ffffff"/>
<line x1="70" y1="260.0" x2="760" y2="260.0" class="grid"/>
<text x="62" y="264.0" text-anchor="end" class="sm">0s</text>
<line x1="70" y1="214.5" x2="760" y2="214.5" class="grid"/>
<text x="62" y="218.5" text-anchor="end" class="sm">200s</text>
<line x1="70" y1="169.1" x2="760" y2="169.1" class="grid"/>
<text x="62" y="173.1" text-anchor="end" class="sm">400s</text>
<line x1="70" y1="123.6" x2="760" y2="123.6" class="grid"/>
<text x="62" y="127.6" text-anchor="end" class="sm">600s</text>
<line x1="70" y1="78.1" x2="760" y2="78.1" class="grid"/>
<text x="62" y="82.1" text-anchor="end" class="sm">800s</text>
<line x1="70" y1="32.6" x2="760" y2="32.6" class="grid"/>
<text x="62" y="36.6" text-anchor="end" class="sm">1000s</text>
<line x1="70" y1="260" x2="760" y2="260" class="ax"/>
<rect x="215.0" y="45.7" width="140" height="214.3" fill="#1e3a5f" rx="4"/>
<text x="285.0" y="37.7" text-anchor="middle" class="v">942.5s</text>
<text x="285.0" y="280" text-anchor="middle" class="cat">Before</text>
<text x="285.0" y="298" text-anchor="middle" class="sm">n=218</text>
<rect x="475.0" y="106.5" width="140" height="153.5" fill="#0d9488" rx="4"/>
<text x="545.0" y="98.5" text-anchor="middle" class="v">675.0s</text>
<text x="545.0" y="280" text-anchor="middle" class="cat">After</text>
<text x="545.0" y="298" text-anchor="middle" class="sm">n=149</text>
<text x="415.0" y="132.0" text-anchor="middle" style="font-weight:800; font-size:18px; fill:#059669;">↓28.4%</text>
</svg>