<svg xmlns="http://www.w3.org/2000/svg" viewBox="0 0 800 340" width="800" height="340" role="img" aria-label="Three CI phases: runtime and compute">
<defs><style>
text { font-family: -apple-system, BlinkMacSystemFont, 'Segoe UI', system-ui, sans-serif; }
.v { font-weight: 700; font-size: 14px; fill: #0f172a; }
.vl { font-weight: 700; font-size: 14px; fill: #ffffff; }
.cat { font-weight: 600; font-size: 13px; fill: #334155; }
.sm { font-weight: 500; font-size: 11px; fill: #64748b; }
.sm-dark { font-weight: 500; font-size: 11px; fill: #334155; }
.smb { font-weight: 600; font-size: 11px; fill: #64748b; }
.ax { stroke: #cbd5e1; stroke-width: 1; }
.grid { stroke: #e2e8f0; stroke-width: 1; stroke-dasharray: 4 3; }
.box-label { font-weight: 700; font-size: 12px; fill: #ffffff; }
.box-sub { font-weight: 500; font-size: 11px; fill: rgba(255,255,255,0.85); }
.heading { font-weight: 700; font-size: 13px; fill: #334155; }
.heading-sm { font-weight: 600; font-size: 12px; fill: #64748b; }
.good { font-weight: 600; font-size: 11px; fill: #059669; }
.bad { font-weight: 600; font-size: 11px; fill: #dc2626; }
</style></defs>
<rect width="100%" height="100%" fill="#ffffff"/>
<text x="60" y="22" class="heading">Runtime (min)</text>
<line x1="60" y1="284.0" x2="390" y2="284.0" class="grid"/>
<text x="54" y="288.0" text-anchor="end" class="sm">0</text>
<line x1="60" y1="225.7" x2="390" y2="225.7" class="grid"/>
<text x="54" y="229.7" text-anchor="end" class="sm">10</text>
<line x1="60" y1="167.5" x2="390" y2="167.5" class="grid"/>
<text x="54" y="171.5" text-anchor="end" class="sm">20</text>
<line x1="60" y1="109.2" x2="390" y2="109.2" class="grid"/>
<text x="54" y="113.2" text-anchor="end" class="sm">30</text>
<line x1="60" y1="51.0" x2="390" y2="51.0" class="grid"/>
<text x="54" y="55.0" text-anchor="end" class="sm">40</text>
<line x1="60" y1="284" x2="390" y2="284" class="ax"/>
<rect x="90.0" y="63.1" width="70" height="220.9" fill="#1e3a5f" rx="3"/>
<text x="125.0" y="58.1" text-anchor="middle" class="v">37.9</text>
<text x="125.0" y="300" text-anchor="middle" class="cat">Baseline</text>
<text x="125.0" y="316" text-anchor="middle" class="sm">n=89</text>
<rect x="190.0" y="222.1" width="70" height="61.9" fill="#d97706" rx="3"/>
<text x="225.0" y="217.1" text-anchor="middle" class="v">10.6</text>
<text x="225.0" y="300" text-anchor="middle" class="cat">Parallel</text>
<text x="225.0" y="316" text-anchor="middle" class="sm">n=57</text>
<rect x="290.0" y="231.1" width="70" height="52.9" fill="#0d9488" rx="3"/>
<text x="325.0" y="226.1" text-anchor="middle" class="v">9.1</text>
<text x="325.0" y="300" text-anchor="middle" class="cat">Current</text>
<text x="325.0" y="316" text-anchor="middle" class="sm">n=6</text>
<line x1="400" y1="30" x2="400" y2="284" stroke="#e2e8f0" stroke-width="1"/>
<text x="420" y="22" class="heading">Credits per run</text>
<line x1="420" y1="284.0" x2="780" y2="284.0" class="grid"/>
<text x="414" y="288.0" text-anchor="end" class="sm">0</text>
<line x1="420" y1="235.6" x2="780" y2="235.6" class="grid"/>
<text x="414" y="239.6" text-anchor="end" class="sm">100</text>
<line x1="420" y1="187.2" x2="780" y2="187.2" class="grid"/>
<text x="414" y="191.2" text-anchor="end" class="sm">200</text>
<line x1="420" y1="138.7" x2="780" y2="138.7" class="grid"/>
<text x="414" y="142.7" text-anchor="end" class="sm">300</text>
<line x1="420" y1="90.3" x2="780" y2="90.3" class="grid"/>
<text x="414" y="94.3" text-anchor="end" class="sm">400</text>
<line x1="420" y1="41.9" x2="780" y2="41.9" class="grid"/>
<text x="414" y="45.9" text-anchor="end" class="sm">500</text>
<line x1="420" y1="284" x2="780" y2="284" class="ax"/>
<rect x="457.5" y="110.1" width="70" height="173.9" fill="#1e3a5f" rx="3"/>
<text x="492.5" y="105.1" text-anchor="middle" class="v">359</text>
<text x="492.5" y="300" text-anchor="middle" class="cat">Baseline</text>
<text x="492.5" y="316" text-anchor="middle" class="sm">n=89</text>
<rect x="565.0" y="63.1" width="70" height="220.9" fill="#d97706" rx="3"/>
<text x="600.0" y="58.1" text-anchor="middle" class="v">456</text>
<text x="600.0" y="300" text-anchor="middle" class="cat">Parallel</text>
<text x="600.0" y="316" text-anchor="middle" class="sm">n=57</text>
<rect x="672.5" y="171.6" width="70" height="112.4" fill="#0d9488" rx="3"/>
<text x="707.5" y="166.6" text-anchor="middle" class="v">232</text>
<text x="707.5" y="300" text-anchor="middle" class="cat">Current</text>
<text x="707.5" y="316" text-anchor="middle" class="sm">n=6</text>
<text x="225.0" y="334" text-anchor="middle" class="smb">↓ 76% faster</text>
<text x="600.0" y="334" text-anchor="middle" class="smb">↓ 35% fewer credits</text>
</svg>