<svg xmlns="http://www.w3.org/2000/svg" viewBox="0 0 800 110" width="800" height="110" role="img" aria-label="Testing platform phased rollout">
<defs><style>
text { font-family: -apple-system, BlinkMacSystemFont, 'Segoe UI', system-ui, sans-serif; }
.v { font-weight: 700; font-size: 14px; fill: #0f172a; }
.vl { font-weight: 700; font-size: 14px; fill: #ffffff; }
.cat { font-weight: 600; font-size: 13px; fill: #334155; }
.sm { font-weight: 500; font-size: 11px; fill: #64748b; }
.sm-dark { font-weight: 500; font-size: 11px; fill: #334155; }
.smb { font-weight: 600; font-size: 11px; fill: #64748b; }
.ax { stroke: #cbd5e1; stroke-width: 1; }
.grid { stroke: #e2e8f0; stroke-width: 1; stroke-dasharray: 4 3; }
.box-label { font-weight: 700; font-size: 12px; fill: #ffffff; }
.box-sub { font-weight: 500; font-size: 11px; fill: rgba(255,255,255,0.85); }
.heading { font-weight: 700; font-size: 13px; fill: #334155; }
.heading-sm { font-weight: 600; font-size: 12px; fill: #64748b; }
.good { font-weight: 600; font-size: 11px; fill: #059669; }
.bad { font-weight: 600; font-size: 11px; fill: #dc2626; }
</style></defs>
<rect width="100%" height="100%" fill="#ffffff"/>
<rect x="20.0" y="26.0" width="139.2" height="58" rx="6" fill="#1e3a5f"/>
<text x="89.6" y="50.0" text-anchor="middle" class="box-label">Phase 1</text>
<text x="89.6" y="68.0" text-anchor="middle" class="box-sub">Infra foundation</text>
<line x1="161.2" y1="55.0" x2="171.2" y2="55.0" stroke="#94a3b8" stroke-width="2"/>
<polygon points="175.2,55.0 169.2,51.0 169.2,59.0" fill="#94a3b8"/>
<rect x="175.2" y="26.0" width="139.2" height="58" rx="6" fill="#2d5f8f"/>
<text x="244.8" y="50.0" text-anchor="middle" class="box-label">Phase 2–4</text>
<text x="244.8" y="68.0" text-anchor="middle" class="box-sub">Role-based E2E</text>
<line x1="316.4" y1="55.0" x2="326.4" y2="55.0" stroke="#94a3b8" stroke-width="2"/>
<polygon points="330.4,55.0 324.4,51.0 324.4,59.0" fill="#94a3b8"/>
<rect x="330.4" y="26.0" width="139.2" height="58" rx="6" fill="#3b7ab3"/>
<text x="400.0" y="50.0" text-anchor="middle" class="box-label">Phase 5</text>
<text x="400.0" y="68.0" text-anchor="middle" class="box-sub">Unit + integration</text>
<line x1="471.6" y1="55.0" x2="481.6" y2="55.0" stroke="#94a3b8" stroke-width="2"/>
<polygon points="485.6,55.0 479.6,51.0 479.6,59.0" fill="#94a3b8"/>
<rect x="485.6" y="26.0" width="139.2" height="58" rx="6" fill="#0d9488"/>
<text x="555.2" y="50.0" text-anchor="middle" class="box-label">Phase 6</text>
<text x="555.2" y="68.0" text-anchor="middle" class="box-sub">CI + sandbox</text>
<line x1="626.8" y1="55.0" x2="636.8" y2="55.0" stroke="#94a3b8" stroke-width="2"/>
<polygon points="640.8,55.0 634.8,51.0 634.8,59.0" fill="#94a3b8"/>
<rect x="640.8" y="26.0" width="139.2" height="58" rx="6" fill="#059669"/>
<text x="710.4" y="50.0" text-anchor="middle" class="box-label">Phase 7</text>
<text x="710.4" y="68.0" text-anchor="middle" class="box-sub">Deterministic</text>
</svg>