<svg xmlns="http://www.w3.org/2000/svg" viewBox="0 0 800 390" width="800" height="390" role="img" aria-label="How workstreams reinforced each other">
<defs><style>
text { font-family: -apple-system, BlinkMacSystemFont, 'Segoe UI', system-ui, sans-serif; }
.v { font-weight: 700; font-size: 14px; fill: #0f172a; }
.vl { font-weight: 700; font-size: 14px; fill: #ffffff; }
.cat { font-weight: 600; font-size: 13px; fill: #334155; }
.sm { font-weight: 500; font-size: 11px; fill: #64748b; }
.sm-dark { font-weight: 500; font-size: 11px; fill: #334155; }
.smb { font-weight: 600; font-size: 11px; fill: #64748b; }
.ax { stroke: #cbd5e1; stroke-width: 1; }
.grid { stroke: #e2e8f0; stroke-width: 1; stroke-dasharray: 4 3; }
.box-label { font-weight: 700; font-size: 12px; fill: #ffffff; }
.box-sub { font-weight: 500; font-size: 11px; fill: rgba(255,255,255,0.85); }
.heading { font-weight: 700; font-size: 13px; fill: #334155; }
.heading-sm { font-weight: 600; font-size: 12px; fill: #64748b; }
.good { font-weight: 600; font-size: 11px; fill: #059669; }
.bad { font-weight: 600; font-size: 11px; fill: #dc2626; }
</style></defs>
<rect width="100%" height="100%" fill="#ffffff"/>
<rect x="20" y="66.0" width="150" height="40" rx="6" fill="#1e3a5f"/>
<text x="95.0" y="90.0" text-anchor="middle" class="vl" style="font-size:11px">Faster CI loop</text>
<rect x="20" y="142.0" width="150" height="40" rx="6" fill="#2d5f8f"/>
<text x="95.0" y="166.0" text-anchor="middle" class="vl" style="font-size:11px">Local-dev isolation</text>
<rect x="20" y="218.0" width="150" height="40" rx="6" fill="#0d9488"/>
<text x="95.0" y="242.0" text-anchor="middle" class="vl" style="font-size:11px">Ops safety rails</text>
<rect x="20" y="294.0" width="150" height="40" rx="6" fill="#d97706"/>
<text x="95.0" y="318.0" text-anchor="middle" class="vl" style="font-size:11px">Security + debt</text>
<rect x="220" y="85.0" width="160" height="40" rx="6" fill="#f1f5f9" stroke="#cbd5e1" stroke-width="1"/>
<text x="300.0" y="109.0" text-anchor="middle" class="sm-dark">Cleaner test signal</text>
<rect x="220" y="180.0" width="160" height="40" rx="6" fill="#f1f5f9" stroke="#cbd5e1" stroke-width="1"/>
<text x="300.0" y="204.0" text-anchor="middle" class="sm-dark">Faster validation</text>
<rect x="220" y="275.0" width="160" height="40" rx="6" fill="#f1f5f9" stroke="#cbd5e1" stroke-width="1"/>
<text x="300.0" y="299.0" text-anchor="middle" class="sm-dark">Stable change surface</text>
<rect x="440" y="116.7" width="150" height="40" rx="6" fill="#4f46e5"/>
<text x="515.0" y="140.7" text-anchor="middle" class="vl" style="font-size:11px">Codified skills</text>
<rect x="440" y="243.3" width="150" height="40" rx="6" fill="#059669"/>
<text x="515.0" y="267.3" text-anchor="middle" class="vl" style="font-size:11px">Team learning</text>
<rect x="640" y="165.0" width="140" height="70" rx="6" fill="#f8fafc" stroke="#cbd5e1" stroke-width="1"/>
<text x="710.0" y="194.0" text-anchor="middle" class="heading" style="font-size:11px">Attention</text>
<text x="710.0" y="210.0" text-anchor="middle" class="sm" style="font-size:10px">reallocation</text>
<line x1="170.0" y1="86.0" x2="220.0" y2="105.0" stroke="#cbd5e1" stroke-width="1.5"/>
<polygon points="220.0,105.0 212.4,105.3 214.5,99.7" fill="#cbd5e1"/>
<line x1="170.0" y1="162.0" x2="220.0" y2="200.0" stroke="#cbd5e1" stroke-width="1.5"/>
<polygon points="220.0,200.0 212.6,198.2 216.2,193.4" fill="#cbd5e1"/>
<line x1="170.0" y1="238.0" x2="220.0" y2="200.0" stroke="#cbd5e1" stroke-width="1.5"/>
<polygon points="220.0,200.0 216.2,206.6 212.6,201.8" fill="#cbd5e1"/>
<line x1="170.0" y1="314.0" x2="220.0" y2="295.0" stroke="#cbd5e1" stroke-width="1.5"/>
<polygon points="220.0,295.0 214.5,300.3 212.4,294.7" fill="#cbd5e1"/>
<line x1="380.0" y1="105.0" x2="440.0" y2="136.7" stroke="#cbd5e1" stroke-width="1.5"/>
<polygon points="440.0,136.7 432.4,136.1 435.2,130.7" fill="#cbd5e1"/>
<line x1="380.0" y1="200.0" x2="440.0" y2="136.7" stroke="#cbd5e1" stroke-width="1.5"/>
<polygon points="440.0,136.7 437.4,143.8 433.0,139.7" fill="#cbd5e1"/>
<line x1="380.0" y1="295.0" x2="440.0" y2="263.3" stroke="#cbd5e1" stroke-width="1.5"/>
<polygon points="440.0,263.3 435.2,269.3 432.4,263.9" fill="#cbd5e1"/>
<line x1="590.0" y1="136.7" x2="640.0" y2="200.0" stroke="#cbd5e1" stroke-width="1.5"/>
<polygon points="640.0,200.0 633.3,196.4 638.0,192.6" fill="#cbd5e1"/>
<line x1="590.0" y1="263.3" x2="640.0" y2="200.0" stroke="#cbd5e1" stroke-width="1.5"/>
<polygon points="640.0,200.0 638.0,207.4 633.3,203.6" fill="#cbd5e1"/>
<path d="M 710.0 165.0 C 710.0 36, 95.0 36, 95.0 66.0" fill="none" stroke="#94a3b8" stroke-width="1.5" stroke-dasharray="4 3"/>
<polygon points="95.0,66.0 91.0,58.0 99.0,58.0" fill="#94a3b8"/>
<text x="400.0" y="24" text-anchor="middle" class="sm" style="font-size:10px; font-style:italic">feedback: codified learning improves upstream quality</text>
</svg>