<svg xmlns="http://www.w3.org/2000/svg" viewBox="0 0 800 340" width="800" height="340" role="img" aria-label="Open-source skills compounding flywheel">
<defs><style>
text { font-family: -apple-system, BlinkMacSystemFont, 'Segoe UI', system-ui, sans-serif; }
.v { font-weight: 700; font-size: 14px; fill: #0f172a; }
.vl { font-weight: 700; font-size: 14px; fill: #ffffff; }
.cat { font-weight: 600; font-size: 13px; fill: #334155; }
.sm { font-weight: 500; font-size: 11px; fill: #64748b; }
.sm-dark { font-weight: 500; font-size: 11px; fill: #334155; }
.smb { font-weight: 600; font-size: 11px; fill: #64748b; }
.ax { stroke: #cbd5e1; stroke-width: 1; }
.grid { stroke: #e2e8f0; stroke-width: 1; stroke-dasharray: 4 3; }
.box-label { font-weight: 700; font-size: 12px; fill: #ffffff; }
.box-sub { font-weight: 500; font-size: 11px; fill: rgba(255,255,255,0.85); }
.heading { font-weight: 700; font-size: 13px; fill: #334155; }
.heading-sm { font-weight: 600; font-size: 12px; fill: #64748b; }
.good { font-weight: 600; font-size: 11px; fill: #059669; }
.bad { font-weight: 600; font-size: 11px; fill: #dc2626; }
</style></defs>
<rect width="100%" height="100%" fill="#ffffff"/>
<circle cx="400" cy="155" r="46" fill="#f8fafc" stroke="#e2e8f0" stroke-width="1.5"/>
<text x="400" y="151" text-anchor="middle" class="heading" style="font-size:11px">Compounding</text>
<text x="400" y="167" text-anchor="middle" class="sm" style="font-size:10px">loop</text>
<rect x="322.5" y="37.0" width="155" height="36" rx="6" fill="#1e3a5f"/>
<text x="400.0" y="59.0" text-anchor="middle" class="vl" style="font-size:12px">1. Discover pattern</text>
<rect x="512.5" y="137.0" width="155" height="36" rx="6" fill="#1e3a5f"/>
<text x="590.0" y="159.0" text-anchor="middle" class="vl" style="font-size:12px">2. Encode as skill</text>
<rect x="322.5" y="237.0" width="155" height="36" rx="6" fill="#1e3a5f"/>
<text x="400.0" y="259.0" text-anchor="middle" class="vl" style="font-size:12px">3. Team reuse</text>
<rect x="132.5" y="137.0" width="155" height="36" rx="6" fill="#1e3a5f"/>
<text x="210.0" y="159.0" text-anchor="middle" class="vl" style="font-size:12px">4. Faster onboarding</text>
<line x1="458.0" y1="65.0" x2="560.0" y2="127.0" stroke="#94a3b8" stroke-width="1.5"/>
<polygon points="560.0,127.0 551.1,126.3 555.2,119.4" fill="#94a3b8"/>
<line x1="560.0" y1="183.0" x2="458.0" y2="245.0" stroke="#94a3b8" stroke-width="1.5"/>
<polygon points="458.0,245.0 462.8,237.4 466.9,244.3" fill="#94a3b8"/>
<line x1="342.0" y1="245.0" x2="240.0" y2="183.0" stroke="#94a3b8" stroke-width="1.5"/>
<polygon points="240.0,183.0 248.9,183.7 244.8,190.6" fill="#94a3b8"/>
<line x1="240.0" y1="127.0" x2="342.0" y2="65.0" stroke="#94a3b8" stroke-width="1.5"/>
<polygon points="342.0,65.0 337.2,72.6 333.1,65.7" fill="#94a3b8"/>
<text x="400" y="316" text-anchor="middle" class="sm">15 plugins  ·  17 skills  ·  37 commands</text>
</svg>